<svg width="59" height="58" viewBox="0 0 59 58" fill="none" xmlns="http://www.w3.org/2000/svg">
    <path d="M53.6667 36.25C53.6667 45.6025 46.1025 53.1667 36.75 53.1667L39.2875 48.9375" stroke="#A8A8A8" stroke-width="3.8" stroke-linecap="round" stroke-linejoin="round"/>
    <path d="M5.33301 21.7497C5.33301 12.3972 12.8972 4.83301 22.2497 4.83301L19.7122 9.06217" stroke="#A8A8A8" stroke-width="3.8" stroke-linecap="round" stroke-linejoin="round"/>
    <path d="M33.6064 10.7546L43.2248 16.3129L52.7464 10.7788" stroke="#A8A8A8" stroke-width="3.8" stroke-linecap="round" stroke-linejoin="round"/>
    <path d="M43.2256 26.149V16.2888" stroke="#A8A8A8" stroke-width="3.8" stroke-linecap="round" stroke-linejoin="round"/>
    <path d="M40.9542 5.34051L35.1542 8.55458C33.8492 9.27958 32.7617 11.1162 32.7617 12.6146V18.753C32.7617 20.2513 33.8251 22.088 35.1542 22.813L40.9542 26.0272C42.1867 26.728 44.2167 26.728 45.4734 26.0272L51.2734 22.813C52.5784 22.088 53.6659 20.2513 53.6659 18.753V12.6146C53.6659 11.1162 52.6026 9.27958 51.2734 8.55458L45.4734 5.34051C44.2409 4.66384 42.2109 4.66384 40.9542 5.34051Z" stroke="#A8A8A8" stroke-width="3.8" stroke-linecap="round" stroke-linejoin="round"/>
    <path d="M6.17871 37.3379L15.7729 42.8962L25.3187 37.3621" stroke="#A8A8A8" stroke-width="3.8" stroke-linecap="round" stroke-linejoin="round"/>
    <path d="M15.7744 52.7323V42.8721" stroke="#A8A8A8" stroke-width="3.8" stroke-linecap="round" stroke-linejoin="round"/>
    <path d="M13.5255 31.9245L7.72553 35.1387C6.42053 35.8637 5.33301 37.7001 5.33301 39.1984V45.337C5.33301 46.8353 6.39637 48.672 7.72553 49.397L13.5255 52.6112C14.758 53.312 16.788 53.312 18.0446 52.6112L23.8447 49.397C25.1497 48.672 26.2372 46.8353 26.2372 45.337V39.1984C26.2372 37.7001 25.1738 35.8637 23.8447 35.1387L18.0446 31.9245C16.788 31.2478 14.758 31.2478 13.5255 31.9245Z" stroke="#A8A8A8" stroke-width="3.8" stroke-linecap="round" stroke-linejoin="round"/>
</svg>
