<svg width="59" height="58" viewBox="0 0 59 58" fill="none" xmlns="http://www.w3.org/2000/svg">
    <path d="M36.7487 4.83301V28.9997C36.7487 31.658 34.5737 33.833 31.9154 33.833H5.33203V14.4997C5.33203 9.15884 9.65786 4.83301 14.9987 4.83301H36.7487Z" stroke="#A8A8A8" stroke-width="4" stroke-linecap="round" stroke-linejoin="round"/>
    <path d="M53.6654 33.833V41.083C53.6654 45.0947 50.427 48.333 46.4154 48.333H43.9987C43.9987 45.6747 41.8237 43.4997 39.1654 43.4997C36.507 43.4997 34.332 45.6747 34.332 48.333H24.6654C24.6654 45.6747 22.4904 43.4997 19.832 43.4997C17.1737 43.4997 14.9987 45.6747 14.9987 48.333H12.582C8.57036 48.333 5.33203 45.0947 5.33203 41.083V33.833H31.9154C34.5737 33.833 36.7487 31.658 36.7487 28.9997V12.083H41.1954C42.9354 12.083 44.5304 13.0255 45.4004 14.5239L49.5329 21.7497H46.4154C45.0862 21.7497 43.9987 22.8372 43.9987 24.1663V31.4163C43.9987 32.7455 45.0862 33.833 46.4154 33.833H53.6654Z" stroke="#A8A8A8" stroke-width="4" stroke-linecap="round" stroke-linejoin="round"/>
    <path d="M19.8333 53.1667C22.5027 53.1667 24.6667 51.0028 24.6667 48.3333C24.6667 45.6639 22.5027 43.5 19.8333 43.5C17.164 43.5 15 45.6639 15 48.3333C15 51.0028 17.164 53.1667 19.8333 53.1667Z" stroke="#A8A8A8" stroke-width="4" stroke-linecap="round" stroke-linejoin="round"/>
    <path d="M39.1654 53.1667C41.8348 53.1667 43.9987 51.0028 43.9987 48.3333C43.9987 45.6639 41.8348 43.5 39.1654 43.5C36.4959 43.5 34.332 45.6639 34.332 48.3333C34.332 51.0028 36.4959 53.1667 39.1654 53.1667Z" stroke="#A8A8A8" stroke-width="4" stroke-linecap="round" stroke-linejoin="round"/>
    <path d="M53.6667 29V33.8333H46.4167C45.0875 33.8333 44 32.7458 44 31.4167V24.1667C44 22.8375 45.0875 21.75 46.4167 21.75H49.5342L53.6667 29Z" stroke="#A8A8A8" stroke-width="4" stroke-linecap="round" stroke-linejoin="round"/>
</svg>
