<svg width="59" height="58" viewBox="0 0 59 58" fill="none" xmlns="http://www.w3.org/2000/svg">
    <path d="M8.44766 33.9496L9.31312 35.7527L9.31313 35.7527L8.44766 33.9496ZM8.44766 24.0506L9.31312 22.2475H9.31312L8.44766 24.0506ZM51.73 34.515L52.5954 32.7119V32.7119L51.73 34.515ZM51.73 23.4852L50.8645 21.6822V21.6822L51.73 23.4852ZM50.5522 24.0506L51.4176 25.8536L50.5522 24.0506ZM50.5522 33.9496L49.6867 35.7527L50.5522 33.9496ZM7.26986 23.4852L6.40439 25.2883H6.4044L7.26986 23.4852ZM7.26986 34.515L6.4044 32.7119L6.4044 32.7119L7.26986 34.515ZM20.8357 34.8359C20.0547 35.6169 20.0547 36.8832 20.8357 37.6643C21.6168 38.4453 22.8831 38.4453 23.6641 37.6643L20.8357 34.8359ZM37.3349 23.9936C38.1159 23.2125 38.1159 21.9462 37.3349 21.1651C36.5538 20.3841 35.2875 20.3841 34.5064 21.1651L37.3349 23.9936ZM16.074 11.6667H42.9259V7.66675H16.074V11.6667ZM42.9258 46.3334H16.074V50.3334H42.9258V46.3334ZM50.8645 21.6822L49.6867 22.2475L51.4176 25.8536L52.5954 25.2883L50.8645 21.6822ZM49.6867 35.7527L50.8645 36.318L52.5954 32.7119L51.4176 32.1466L49.6867 35.7527ZM8.13532 36.318L9.31312 35.7527L7.5822 32.1466L6.4044 32.7119L8.13532 36.318ZM9.31312 22.2475L8.13532 21.6822L6.4044 25.2883L7.5822 25.8536L9.31312 22.2475ZM9.31313 35.7527C14.9784 33.0333 14.9784 24.9668 9.31312 22.2475L7.5822 25.8536C10.222 27.1207 10.222 30.8794 7.5822 32.1466L9.31313 35.7527ZM50.8645 36.318C51.3547 36.5533 51.6666 37.0489 51.6666 37.5927H55.6666C55.6666 35.5105 54.4725 33.6129 52.5954 32.7119L50.8645 36.318ZM51.6666 20.4075C51.6666 20.9513 51.3547 21.4469 50.8645 21.6822L52.5954 25.2883C54.4725 24.3873 55.6666 22.4896 55.6666 20.4075H51.6666ZM49.6867 22.2475C44.0215 24.9668 44.0215 33.0333 49.6867 35.7527L51.4176 32.1466C48.7778 30.8794 48.7778 27.1207 51.4176 25.8536L49.6867 22.2475ZM16.074 46.3334C11.2466 46.3334 7.33325 42.42 7.33325 37.5927H3.33325C3.33325 44.6292 9.03747 50.3334 16.074 50.3334V46.3334ZM8.13532 21.6822C7.64509 21.4469 7.33325 20.9513 7.33325 20.4075H3.33325C3.33325 22.4896 4.52731 24.3873 6.40439 25.2883L8.13532 21.6822ZM42.9258 50.3334C49.9624 50.3334 55.6666 44.6292 55.6666 37.5927H51.6666C51.6666 42.42 47.7532 46.3334 42.9258 46.3334V50.3334ZM7.33325 37.5927C7.33325 37.0489 7.64509 36.5533 8.13532 36.318L6.4044 32.7119C4.52731 33.6129 3.33325 35.5105 3.33325 37.5927H7.33325ZM42.9259 11.6667C47.7532 11.6667 51.6666 15.5801 51.6666 20.4075H55.6666C55.6666 13.371 49.9624 7.66675 42.9259 7.66675V11.6667ZM16.074 7.66675C9.03748 7.66675 3.33325 13.371 3.33325 20.4075H7.33325C7.33325 15.5801 11.2466 11.6667 16.074 11.6667V7.66675ZM23.6641 37.6643L37.3349 23.9936L34.5064 21.1651L20.8357 34.8359L23.6641 37.6643Z" fill="#A8A8A8"/>
    <path d="M19.8333 21.7502C19.8333 23.0849 20.9152 24.1668 22.2499 24.1668C23.5846 24.1668 24.6666 23.0849 24.6666 21.7502C24.6666 20.4155 23.5846 19.3335 22.2499 19.3335C20.9152 19.3335 19.8333 20.4155 19.8333 21.7502Z" fill="#A8A8A8"/>
    <path d="M34.3333 36.2502C34.3333 37.5849 35.4152 38.6668 36.7499 38.6668C38.0846 38.6668 39.1666 37.5849 39.1666 36.2502C39.1666 34.9155 38.0846 33.8335 36.7499 33.8335C35.4152 33.8335 34.3333 34.9155 34.3333 36.2502Z" fill="#A8A8A8"/>
</svg>
